<svg width="25" height="24" xmlns="http://www.w3.org/2000/svg" xmlns:xlink="http://www.w3.org/1999/xlink" xml:space="preserve" overflow="hidden"><g transform="translate(-26 -447)"><path d="M12 0C5.37 0 0 5.37 0 12 0 17.31 3.435 21.795 8.205 23.385 8.805 23.49 9.03 23.13 9.03 22.815 9.03 22.53 9.015 21.585 9.015 20.58 6 21.135 5.22 19.845 4.98 19.17 4.845 18.825 4.26 17.76 3.75 17.475 3.33 17.25 2.73 16.695 3.735 16.68 4.68 16.665 5.355 17.55 5.58 17.91 6.66 19.725 8.385 19.215 9.075 18.9 9.18 18.12 9.495 17.595 9.84 17.295 7.17 16.995 4.38 15.96 4.38 11.37 4.38 10.065 4.845 8.985 5.61 8.145 5.49 7.845 5.07 6.615 5.73 4.965 5.73 4.965 6.735 4.65 9.03 6.195 9.99 5.925 11.01 5.79 12.03 5.79 13.05 5.79 14.07 5.925 15.03 6.195 17.325 4.635 18.33 4.965 18.33 4.965 18.99 6.615 18.57 7.845 18.45 8.145 19.215 8.985 19.68 10.05 19.68 11.37 19.68 15.975 16.875 16.995 14.205 17.295 14.64 17.67 15.015 18.39 15.015 19.515 15.015 21.12 15 22.41 15 22.815 15 23.13 15.225 23.505 15.825 23.385 20.565 21.795 24 17.295 24 12 24 5.37 18.63 0 12 0Z" fill="currentColor" fill-rule="evenodd" transform="matrix(1.04167 0 0 1 26 447)"/></g></svg>