<svg viewBox="0 0 25 24" preserveAspectRatio="xMidYMid" overflow="hidden" xmlns="http://www.w3.org/2000/svg">
    <path d="M12.5 0C5.594 0 0 5.37 0 12c0 5.31 3.578 9.795 8.547 11.385.625.105.86-.255.86-.57 0-.285-.016-1.23-.016-2.235-3.141.555-3.953-.735-4.203-1.41-.141-.345-.75-1.41-1.282-1.695-.437-.225-1.062-.78-.015-.795.984-.015 1.687.87 1.922 1.23 1.125 1.815 2.921 1.305 3.64.99.11-.78.438-1.305.797-1.605-2.781-.3-5.687-1.335-5.687-5.925 0-1.305.484-2.385 1.28-3.225-.124-.3-.562-1.53.126-3.18 0 0 1.047-.315 3.437 1.23 1-.27 2.063-.405 3.125-.405 1.063 0 2.125.135 3.125.405 2.39-1.56 3.438-1.23 3.438-1.23.687 1.65.25 2.88.125 3.18.797.84 1.281 1.905 1.281 3.225 0 4.605-2.922 5.625-5.703 5.925.453.375.844 1.095.844 2.22 0 1.605-.016 2.895-.016 3.3 0 .315.234.69.86.57C21.421 21.795 25 17.295 25 12c0-6.63-5.594-12-12.5-12z" fill="currentColor" fill-rule="evenodd"/>
</svg>