<svg viewBox="0 0 24 24" preserveAspectRatio="xMidYMid" overflow="hidden" xmlns="http://www.w3.org/2000/svg">
    <path d="M3.678 9.111v11.556h3.578V9.11zm12.783-.353c-2.452 0-3.484 1.91-3.484 1.91V9.11H9.545v11.556h3.432V14.6c0-1.626.748-2.593 2.18-2.593 1.316 0 1.948.93 1.948 2.593v6.066h3.562V13.35c0-3.095-1.755-4.592-4.206-4.592zM5.45 3.333a2.124 2.124 0 00-2.117 2.133c0 1.177.948 2.132 2.117 2.132s2.116-.955 2.116-2.132A2.124 2.124 0 005.45 3.333zM2.667 0h18.666A2.667 2.667 0 0124 2.667v18.666A2.667 2.667 0 0121.333 24H2.667A2.667 2.667 0 010 21.333V2.667A2.667 2.667 0 012.667 0z" fill="currentColor" fill-rule="evenodd"/>
</svg>