<svg width="27" height="26" xmlns="http://www.w3.org/2000/svg" xmlns:xlink="http://www.w3.org/1999/xlink" xml:space="preserve" overflow="hidden"><g transform="translate(-25 -315)"><path d="M22.2083 22.6417 16.7917 17.4958 22.2083 12.35 22.2083 22.6417ZM4.65833 23.2917 10.0208 18.2271 10.4 17.875C11.8625 16.4938 14.1646 16.4938 15.6271 17.875L16.0063 18.2271 21.3417 23.2917 4.65833 23.2917ZM3.79167 12.3229 9.20833 17.4688 3.79167 22.6146 3.79167 12.3229ZM7.58333 5.41667 18.4167 5.41667 18.4167 14.4354 15.9792 16.7646C14.2188 15.4104 11.7812 15.4104 10.0208 16.7646L7.58333 14.4354 7.58333 5.41667ZM20.0417 6.14792 20.0417 3.79167 16.25 3.79167 13 1.08333 9.75 3.79167 5.95833 3.79167 5.95833 6.175 2.16667 9.77708 2.16667 24.9167 23.8333 24.9167 23.8333 9.77708 20.0417 6.14792Z" fill="#262626" transform="matrix(1.03846 0 0 1 25 315)"/><path d="M13 11.4563C12.5125 11.4563 12.1333 11.05 12.1333 10.5896 12.1333 10.1021 12.5396 9.72292 13 9.72292 13.4875 9.72292 13.8667 10.1021 13.8667 10.5896 13.8667 11.0771 13.4875 11.4563 13 11.4563ZM13 14.0833C13.6229 14.0833 14.2188 13.9208 14.7604 13.65 14.9771 13.5146 15.0583 13.2438 14.95 13.0271 14.8146 12.8104 14.5438 12.7292 14.3271 12.8375 13.9208 13.0542 13.4604 13.1625 13 13.1625 11.5646 13.1625 10.3729 11.9708 10.4 10.5354 10.4 9.1 11.5917 7.90833 13.0271 7.90833 14.4625 7.90833 15.6542 9.07292 15.6542 10.5354L15.6542 11.4021C15.1667 11.4021 14.7875 11.0229 14.7875 10.5354 14.7875 9.66875 14.1917 8.9375 13.3521 8.775 12.5125 8.6125 11.6729 9.07292 11.375 9.85833 11.0771 10.6438 11.375 11.5646 12.1063 11.9979 12.8375 12.4313 13.7854 12.2958 14.3542 11.6458 14.6792 12.025 15.1667 12.2417 15.6813 12.2417 16.1688 12.2417 16.5479 11.8625 16.5479 11.375L16.5479 10.5083C16.5479 8.55833 14.9771 6.9875 13.0271 6.9875 11.0771 6.9875 9.50625 8.55833 9.50625 10.5083 9.47917 12.4854 11.05 14.0563 13 14.0833Z" fill="#262626" transform="matrix(1.03846 0 0 1 25 315)"/></g></svg>