<svg viewBox="0 0 24 24" preserveAspectRatio="xMidYMid" overflow="hidden" xmlns="http://www.w3.org/2000/svg">
  <path fill="currentColor" d="M12 10.445c-.54 0-.96-.409-.96-.872 0-.491.45-.873.96-.873.54 0 .96.382.96.873 0 .49-.42.872-.96.872zm0 2.646c.69 0 1.35-.164 1.95-.436.24-.137.33-.41.21-.628a.567.567 0 00-.69-.19c-.45.218-.96.327-1.47.327-1.59 0-2.91-1.2-2.88-2.646 0-1.445 1.32-2.645 2.91-2.645s2.91 1.172 2.91 2.645v.873c-.54 0-.96-.382-.96-.873 0-.873-.66-1.609-1.59-1.773-.93-.163-1.86.3-2.19 1.091-.33.791 0 1.719.81 2.155.81.436 1.86.3 2.49-.355.36.382.9.6 1.47.6.54 0 .96-.381.96-.872V9.49c0-1.964-1.74-3.546-3.9-3.546s-3.9 1.582-3.9 3.546c-.03 1.99 1.71 3.573 3.87 3.6zm10.2 8.618l-6-5.182 6-5.182zm-19.44.655l5.94-5.1.42-.355c1.62-1.39 4.17-1.39 5.79 0l.42.355 5.91 5.1zM1.8 11.318l6 5.182-6 5.182zM6 4.364h12v9.081l-2.7 2.346c-1.95-1.364-4.65-1.364-6.6 0L6 13.445zm13.8.736V2.727h-4.2L12 0 8.4 2.727H4.2v2.4L0 8.755V24h24V8.755z"/>
</svg>